<svg width="36" height="34" viewBox="0 0 36 34" fill="none" xmlns="http://www.w3.org/2000/svg">
<path d="M12 12.5C11.1716 12.5 10.5 13.1716 10.5 14V20C10.5 20.8284 11.1716 21.4999 12 21.4999H24C24.8284 21.4999 25.5 20.8284 25.5 20V14C25.5 13.1716 24.8284 12.5 24 12.5H12Z" fill="white"/>
<path d="M21.0001 9.49993H33.0001C33.8285 9.49993 34.5001 8.82837 34.5001 7.99995V1.99998C34.5001 1.17155 33.8285 0.5 33.0001 0.5H21.0001C20.1717 0.5 19.5001 1.17155 19.5001 1.99998V7.99995C19.5001 8.82837 20.1717 9.49993 21.0001 9.49993Z" fill="white"/>
<path d="M2.99998 9.49993H15C15.8284 9.49993 16.5 8.82837 16.5 7.99995V1.99998C16.5 1.17155 15.8284 0.5 15 0.5H2.99998C2.17155 0.5 1.5 1.17155 1.5 1.99998V7.99995C1.49993 8.82837 2.17155 9.49993 2.99998 9.49993Z" fill="white"/>
<path d="M33 24.5H21.0001C20.1717 24.5 19.5001 25.1716 19.5001 26V32C19.5001 32.8284 20.1717 33.4999 21.0001 33.4999H33.0001C33.8285 33.4999 34.5001 32.8284 34.5001 32V26C34.5001 25.1716 33.8285 24.5 33 24.5Z" fill="white"/>
<path d="M14.9999 24.5H2.99998C2.17155 24.5 1.5 25.1716 1.5 26V32C1.5 32.8284 2.17155 33.4999 2.99998 33.4999H15C15.8284 33.4999 16.5 32.8284 16.5 32V26C16.5 25.1716 15.8284 24.5 14.9999 24.5Z" fill="white"/>
<path d="M30.0001 12.5C29.1717 12.5 28.5001 13.1716 28.5001 14V20C28.5001 20.8284 29.1717 21.4999 30.0001 21.4999H36.0001V12.5H30.0001Z" fill="white"/>
<path d="M7.50002 20V14C7.50002 13.1716 6.82847 12.5 6.00005 12.5H0V21.5H5.99998C6.8284 21.4999 7.50002 20.8284 7.50002 20Z" fill="white"/>
</svg>
